HIERARCHY
ROOT Hips
{
  OFFSET 0.000 57.500 0.000
  CHANNELS 6 Xposition Yposition Zposition Zrotation Xrotation Yrotation
  JOINT LeftUpLeg
  {
    OFFSET 8.160 1.068 2.973
    CHANNELS 6 Xposition Yposition Zposition Zrotation Xrotation Yrotation
    JOINT LeftLeg
    {
      OFFSET 0.000 -25.635 0.000
      CHANNELS 6 Xposition Yposition Zposition Zrotation Xrotation Yrotation
      JOINT LeftFoot
      {
        OFFSET 0.000 -32.933 0.000
        CHANNELS 6 Xposition Yposition Zposition Zrotation Xrotation Yrotation
        End Site
        {
          OFFSET 0.000 0.000 8.305
        }
      }
    }
  }
  JOINT RightUpLeg
  {
    OFFSET -8.160 1.068 2.973
    CHANNELS 6 Xposition Yposition Zposition Zrotation Xrotation Yrotation
    JOINT RightLeg
    {
      OFFSET 0.000 -25.635 0.000
      CHANNELS 6 Xposition Yposition Zposition Zrotation Xrotation Yrotation
      JOINT RightFoot
      {
        OFFSET 0.000 -32.933 0.000
        CHANNELS 6 Xposition Yposition Zposition Zrotation Xrotation Yrotation
        End Site
        {
          OFFSET 0.000 0.000 8.305
        }
      }
    }
  }
  JOINT Spine
  {
    OFFSET 0.000 27.277 0.000
    CHANNELS 6 Xposition Yposition Zposition Zrotation Xrotation Yrotation
    JOINT Spine1
    {
      OFFSET 0.000 19.038 0.000
      CHANNELS 6 Xposition Yposition Zposition Zrotation Xrotation Yrotation
      JOINT LeftShoulder
      {
        OFFSET 1.407 -0.119 0.390
        CHANNELS 6 Xposition Yposition Zposition Zrotation Xrotation Yrotation
        JOINT LeftArm
        {
          OFFSET 14.091 0.000 0.000
          CHANNELS 6 Xposition Yposition Zposition Zrotation Xrotation Yrotation
          JOINT LeftForeArm
          {
            OFFSET 17.014 0.000 0.000
            CHANNELS 6 Xposition Yposition Zposition Zrotation Xrotation Yrotation
            JOINT LeftHand
            {
              OFFSET 23.300 0.000 0.000
              CHANNELS 6 Xposition Yposition Zposition Zrotation Xrotation Yrotation
              JOINT LeftHandThumb1
              {
                OFFSET 4.877 -1.044 3.608
                CHANNELS 6 Xposition Yposition Zposition Zrotation Xrotation Yrotation
                JOINT LeftHandThumb2
                {
                  OFFSET 2.665 -0.000 -0.000
                  CHANNELS 6 Xposition Yposition Zposition Zrotation Xrotation Yrotation
                  JOINT LeftHandThumb3
                  {
                    OFFSET 2.543 -0.000 -0.000
                    CHANNELS 6 Xposition Yposition Zposition Zrotation Xrotation Yrotation
                    End Site
                    {
                      OFFSET 2.667 0.000 0.000
                    }
                  }
                }
              }
              JOINT LeftHandIndex1
              {
                OFFSET 9.232 -0.301 2.144
                CHANNELS 6 Xposition Yposition Zposition Zrotation Xrotation Yrotation
                JOINT LeftHandIndex2
                {
                  OFFSET 4.225 0.000 0.000
                  CHANNELS 6 Xposition Yposition Zposition Zrotation Xrotation Yrotation
                  JOINT LeftHandIndex3
                  {
                    OFFSET 2.654 -0.000 -0.000
                    CHANNELS 6 Xposition Yposition Zposition Zrotation Xrotation Yrotation
                    End Site
                    {
                      OFFSET 1.958 0.000 0.000
                    }
                  }
                }
              }
              JOINT LeftHandMiddle1
              {
                OFFSET 8.920 0.000 0.000
                CHANNELS 6 Xposition Yposition Zposition Zrotation Xrotation Yrotation
                JOINT LeftHandMiddle2
                {
                  OFFSET 4.863 0.000 0.000
                  CHANNELS 6 Xposition Yposition Zposition Zrotation Xrotation Yrotation
                  JOINT LeftHandMiddle3
                  {
                    OFFSET 2.765 -0.000 -0.000
                    CHANNELS 6 Xposition Yposition Zposition Zrotation Xrotation Yrotation
                    End Site
                    {
                      OFFSET 2.006 0.000 -0.000
                    }
                  }
                }
              }
              JOINT LeftHandRing1
              {
                OFFSET 8.689 -0.126 -2.087
                CHANNELS 6 Xposition Yposition Zposition Zrotation Xrotation Yrotation
                JOINT LeftHandRing2
                {
                  OFFSET 4.538 -0.000 0.000
                  CHANNELS 6 Xposition Yposition Zposition Zrotation Xrotation Yrotation
                  JOINT LeftHandRing3
                  {
                    OFFSET 2.305 -0.000 -0.000
                    CHANNELS 6 Xposition Yposition Zposition Zrotation Xrotation Yrotation
                    End Site
                    {
                      OFFSET 1.923 0.000 -0.000
                    }
                  }
                }
              }
              JOINT LeftHandPinky1
              {
                OFFSET 8.391 -0.817 -3.758
                CHANNELS 6 Xposition Yposition Zposition Zrotation Xrotation Yrotation
                JOINT LeftHandPinky2
                {
                  OFFSET 3.044 0.000 0.000
                  CHANNELS 6 Xposition Yposition Zposition Zrotation Xrotation Yrotation
                  JOINT LeftHandPinky3
                  {
                    OFFSET 1.975 -0.000 0.000
                    CHANNELS 6 Xposition Yposition Zposition Zrotation Xrotation Yrotation
                    End Site
                    {
                      OFFSET 1.667 0.000 -0.000
                    }
                  }
                }
              }
            }
          }
        }
      }
      JOINT RightShoulder
      {
        OFFSET -1.407 -0.119 0.390
        CHANNELS 6 Xposition Yposition Zposition Zrotation Xrotation Yrotation
        JOINT RightArm
        {
          OFFSET -14.091 0.000 0.000
          CHANNELS 6 Xposition Yposition Zposition Zrotation Xrotation Yrotation
          JOINT RightForeArm
          {
            OFFSET -17.014 0.000 0.000
            CHANNELS 6 Xposition Yposition Zposition Zrotation Xrotation Yrotation
            JOINT RightHand
            {
              OFFSET -23.300 0.000 0.000
              CHANNELS 6 Xposition Yposition Zposition Zrotation Xrotation Yrotation
              JOINT RightHandThumb1
              {
                OFFSET -4.877 -1.044 3.608
                CHANNELS 6 Xposition Yposition Zposition Zrotation Xrotation Yrotation
                JOINT RightHandThumb2
                {
                  OFFSET -2.665 -0.000 0.000
                  CHANNELS 6 Xposition Yposition Zposition Zrotation Xrotation Yrotation
                  JOINT RightHandThumb3
                  {
                    OFFSET -2.543 0.000 0.000
                    CHANNELS 6 Xposition Yposition Zposition Zrotation Xrotation Yrotation
                    End Site
                    {
                      OFFSET -2.667 0.000 0.000
                    }
                  }
                }
              }
              JOINT RightHandIndex1
              {
                OFFSET -9.232 -0.301 2.144
                CHANNELS 6 Xposition Yposition Zposition Zrotation Xrotation Yrotation
                JOINT RightHandIndex2
                {
                  OFFSET -4.225 0.000 0.000
                  CHANNELS 6 Xposition Yposition Zposition Zrotation Xrotation Yrotation
                  JOINT RightHandIndex3
                  {
                    OFFSET -2.654 0.000 -0.000
                    CHANNELS 6 Xposition Yposition Zposition Zrotation Xrotation Yrotation
                    End Site
                    {
                      OFFSET -1.958 -0.000 0.000
                    }
                  }
                }
              }
              JOINT RightHandMiddle1
              {
                OFFSET -8.920 0.000 0.000
                CHANNELS 6 Xposition Yposition Zposition Zrotation Xrotation Yrotation
                JOINT RightHandMiddle2
                {
                  OFFSET -4.863 0.000 -0.000
                  CHANNELS 6 Xposition Yposition Zposition Zrotation Xrotation Yrotation
                  JOINT RightHandMiddle3
                  {
                    OFFSET -2.765 0.000 0.000
                    CHANNELS 6 Xposition Yposition Zposition Zrotation Xrotation Yrotation
                    End Site
                    {
                      OFFSET -2.006 -0.000 0.000
                    }
                  }
                }
              }
              JOINT RightHandRing1
              {
                OFFSET -8.689 -0.126 -2.087
                CHANNELS 6 Xposition Yposition Zposition Zrotation Xrotation Yrotation
                JOINT RightHandRing2
                {
                  OFFSET -4.538 0.000 0.000
                  CHANNELS 6 Xposition Yposition Zposition Zrotation Xrotation Yrotation
                  JOINT RightHandRing3
                  {
                    OFFSET -2.305 0.000 0.000
                    CHANNELS 6 Xposition Yposition Zposition Zrotation Xrotation Yrotation
                    End Site
                    {
                      OFFSET -1.923 -0.000 0.000
                    }
                  }
                }
              }
              JOINT RightHandPinky1
              {
                OFFSET -8.391 -0.817 -3.758
                CHANNELS 6 Xposition Yposition Zposition Zrotation Xrotation Yrotation
                JOINT RightHandPinky2
                {
                  OFFSET -3.044 0.000 0.000
                  CHANNELS 6 Xposition Yposition Zposition Zrotation Xrotation Yrotation
                  JOINT RightHandPinky3
                  {
                    OFFSET -1.975 0.000 0.000
                    CHANNELS 6 Xposition Yposition Zposition Zrotation Xrotation Yrotation
                    End Site
                    {
                      OFFSET -1.667 -0.000 -0.000
                    }
                  }
                }
              }
            }
          }
        }
      }
      JOINT Neck
      {
        OFFSET 0.000 0.640 0.000
        CHANNELS 6 Xposition Yposition Zposition Zrotation Xrotation Yrotation
        JOINT Head
        {
          OFFSET 0.000 5.920 0.000
          CHANNELS 6 Xposition Yposition Zposition Zrotation Xrotation Yrotation
          End Site
          {
            OFFSET 0.000 12.635 0.000
          }
        }
      }
    }
  }
}
MOTION
Frames:	4
Frame Time:	0.033333
-95.84309 69.49705 -190.19908 2.69995 -0.62499 18.37787 8.69062 -0.12218 3.15685 -0.96817 1.19649 16.17120 0.01293 -24.99713 0.00168 4.88355 6.84662 -11.24984 0.00523 -31.18347 0.01020 1.00334 10.08817 -4.32004 -7.71583 1.36276 3.15823 -4.98605 -1.35028 9.52254 0.00443 -23.82925 -0.03317 0.13435 16.93676 -13.35242 -0.00420 -25.70924 -0.00024 0.85185 0.80812 -6.09821 0.00011 28.16709 0.00496 -0.25181 1.93780 0.85209 0.00925 20.70850 -0.00280 -0.31344 2.43570 0.93625 1.38574 -0.35913 0.88649 -10.10295 6.43457 -32.14186 15.13490 -0.00027 0.00080 -55.73879 -1.17534 -13.51935 15.50488 -0.00115 0.00202 172.22765 -12.17142 -14.39301 19.16466 0.24189 -0.01180 73.99259 -16.78688 9.60303 4.87700 -1.04399 3.60799 -41.57594 -8.45725 -7.72879 2.66501 -0.00001 -0.00001 -0.00000 0.00000 5.00000 2.54297 -0.00001 -0.00001 0.00001 0.00000 60.00000 9.23200 -0.30099 2.14399 -80.00000 0.00000 0.00000 4.22501 0.00001 0.00001 -90.00000 -0.00000 -0.00000 2.65402 -0.00001 -0.00001 -70.00000 -0.00000 0.00006 8.91999 0.00000 0.00000 -80.00000 0.00000 0.00000 4.86298 0.00001 0.00000 -90.00000 -0.00000 -0.00000 2.76501 -0.00001 -0.00001 -70.00000 -0.00000 0.00006 8.68901 -0.12599 -2.08701 -80.00000 0.00000 0.00000 4.53800 -0.00001 0.00001 -90.00000 -0.00000 -0.00000 2.30500 -0.00001 -0.00004 -70.00000 -0.00000 0.00006 8.39099 -0.81698 -3.75801 -80.00000 0.00000 0.00000 3.04401 0.00001 0.00000 -90.00000 -0.00000 -0.00000 1.97500 -0.00001 0.00000 -70.00000 -0.00000 0.00006 -1.06464 -0.25482 0.88644 8.38828 6.90535 39.19358 -12.73919 0.00494 -0.00281 53.61069 -4.32489 40.71675 -16.06584 0.00268 0.00277 -178.80742 2.42851 42.58418 -17.18085 -0.00403 -0.00296 0.04281 16.71419 -14.45899 -4.87701 -1.04400 3.60801 37.43813 21.26626 8.20656 -2.66500 -0.00001 0.00000 0.00000 -0.00000 -5.00000 -2.54300 0.00000 0.00001 -0.00000 0.00000 -60.00000 -9.23201 -0.30100 2.14400 80.00000 0.00000 0.00000 -4.22500 0.00000 0.00000 90.00000 -0.00001 0.00001 -2.65402 0.00001 -0.00001 70.00000 0.00000 0.00001 -8.92001 0.00001 0.00000 80.00000 0.00000 0.00000 -4.86299 0.00000 -0.00001 90.00000 -0.00001 0.00001 -2.76500 0.00001 0.00001 70.00000 0.00000 0.00001 -8.68901 -0.12598 -2.08700 80.00000 0.00000 0.00000 -4.53801 0.00000 0.00000 90.00000 -0.00001 0.00001 -2.30500 0.00001 0.00001 70.00000 0.00000 0.00001 -8.39101 -0.81698 -3.75800 80.00000 0.00000 0.00000 -3.04402 0.00000 0.00001 90.00000 -0.00001 0.00001 -1.97499 0.00001 0.00001 70.00000 0.00000 0.00001 0.00000 0.68027 0.00002 -0.00001 -0.00005 0.00000 -0.00510 6.11993 0.00120 -2.80944 3.56412 -0.30156 
-95.85373 69.49705 -190.20969 2.69670 -0.61607 18.35421 8.69062 -0.12218 3.15685 -0.98940 1.16721 16.14068 0.01293 -24.96617 0.00168 4.93180 6.85579 -11.09938 0.00523 -31.19686 0.01020 0.84759 8.97087 -4.20759 -7.71583 1.36276 3.15823 -5.01671 -1.13637 9.40722 0.00443 -24.09672 -0.03317 0.10577 16.78280 -13.96180 -0.00420 -25.71262 -0.00209 -0.38200 -5.04712 -7.35785 0.00011 28.16709 0.00496 -0.25228 1.93780 0.86607 0.00925 20.70850 -0.00280 -0.31405 2.43569 0.95066 1.38574 -0.35913 0.88649 -10.10295 6.43457 -32.14186 15.13490 -0.00027 0.00080 -55.64647 -1.15257 -13.58169 15.50488 -0.00115 0.00202 172.45181 -12.38950 -14.26854 19.43008 0.18449 -0.01106 76.47958 -17.85020 9.14198 4.87700 -1.04399 3.60799 -41.57594 -8.45725 -7.72879 2.66501 -0.00001 -0.00001 -0.00000 0.00000 5.00000 2.54297 -0.00001 -0.00001 0.00001 0.00000 60.00000 9.23200 -0.30099 2.14399 -80.00000 0.00000 0.00000 4.22501 0.00001 0.00001 -90.00000 -0.00000 -0.00000 2.65402 -0.00001 -0.00001 -70.00000 -0.00000 0.00006 8.91999 0.00000 0.00000 -80.00000 0.00000 0.00000 4.86298 0.00001 0.00000 -90.00000 -0.00000 -0.00000 2.76501 -0.00001 -0.00001 -70.00000 -0.00000 0.00006 8.68901 -0.12599 -2.08701 -80.00000 0.00000 0.00000 4.53800 -0.00001 0.00001 -90.00000 -0.00000 -0.00000 2.30500 -0.00001 -0.00004 -70.00000 -0.00000 0.00006 8.39099 -0.81698 -3.75801 -80.00000 0.00000 0.00000 3.04401 0.00001 0.00000 -90.00000 -0.00000 -0.00000 1.97500 -0.00001 0.00000 -70.00000 -0.00000 0.00006 -1.06464 -0.25482 0.88644 8.38465 6.90664 39.20664 -12.73919 0.00494 -0.00281 53.76217 -4.30202 40.86372 -16.08128 0.00268 0.00277 -179.21567 2.63270 42.90284 -17.11301 -0.00403 -0.00296 0.96834 17.70231 -15.23980 -4.87701 -1.04400 3.60801 37.43813 21.26626 8.20656 -2.66500 -0.00001 0.00000 0.00000 -0.00000 -5.00000 -2.54300 0.00000 0.00001 -0.00000 0.00000 -60.00000 -9.23201 -0.30100 2.14400 80.00000 0.00000 0.00000 -4.22500 0.00000 0.00000 90.00000 -0.00001 0.00001 -2.65402 0.00001 -0.00001 70.00000 0.00000 0.00001 -8.92001 0.00001 0.00000 80.00000 0.00000 0.00000 -4.86299 0.00000 -0.00001 90.00000 -0.00001 0.00001 -2.76500 0.00001 0.00001 70.00000 0.00000 0.00001 -8.68901 -0.12598 -2.08700 80.00000 0.00000 0.00000 -4.53801 0.00000 0.00000 90.00000 -0.00001 0.00001 -2.30500 0.00001 0.00001 70.00000 0.00000 0.00001 -8.39101 -0.81698 -3.75800 80.00000 0.00000 0.00000 -3.04402 0.00000 0.00001 90.00000 -0.00001 0.00001 -1.97499 0.00001 0.00001 70.00000 0.00000 0.00001 0.00000 0.68027 0.00002 -0.00001 -0.00005 0.00000 -0.00510 6.11993 0.00120 -2.77950 3.55416 0.24674 
-95.86274 69.49705 -190.21623 2.69495 -0.61107 18.34664 8.69062 -0.12218 3.15685 -0.97372 1.12118 16.12284 0.01293 -24.85648 0.00168 4.89227 6.89401 -10.98695 0.00523 -31.18561 0.01020 0.72762 8.13832 -4.12694 -7.71583 1.36276 3.15823 -5.27894 -1.90168 8.82353 0.00443 -23.84254 -0.03317 0.74061 17.89284 -14.28037 -0.00420 -25.32981 0.00952 1.54499 5.68666 -8.60026 0.00011 28.16709 0.00496 -0.25246 1.93779 0.87132 0.00925 20.70850 -0.00280 -0.31429 2.43569 0.95625 1.38574 -0.35913 0.88649 -10.10295 6.43457 -32.14186 15.13490 -0.00027 0.00080 -55.68461 -1.47851 -13.65039 15.50488 -0.00115 0.00202 170.11047 -14.11679 -15.21693 18.59130 0.19377 0.01476 60.55656 -19.19728 11.28547 4.87700 -1.04399 3.60799 -41.57594 -8.45725 -7.72879 2.66501 -0.00001 -0.00001 -0.00000 0.00000 5.00000 2.54297 -0.00001 -0.00001 0.00001 0.00000 60.00000 9.23200 -0.30099 2.14399 -80.00000 0.00000 0.00000 4.22501 0.00001 0.00001 -90.00000 -0.00000 -0.00000 2.65402 -0.00001 -0.00001 -70.00000 -0.00000 0.00006 8.91999 0.00000 0.00000 -80.00000 0.00000 0.00000 4.86298 0.00001 0.00000 -90.00000 -0.00000 -0.00000 2.76501 -0.00001 -0.00001 -70.00000 -0.00000 0.00006 8.68901 -0.12599 -2.08701 -80.00000 0.00000 0.00000 4.53800 -0.00001 0.00001 -90.00000 -0.00000 -0.00000 2.30500 -0.00001 -0.00004 -70.00000 -0.00000 0.00006 8.39099 -0.81698 -3.75801 -80.00000 0.00000 0.00000 3.04401 0.00001 0.00000 -90.00000 -0.00000 -0.00000 1.97500 -0.00001 0.00000 -70.00000 -0.00000 0.00006 -1.06464 -0.25482 0.88644 8.37921 6.90968 39.22179 -12.73919 0.00494 -0.00281 53.98039 -4.26393 40.91278 -16.18422 0.00268 0.00277 -179.78421 2.91171 43.08695 -17.05987 -0.00403 -0.00296 2.29145 18.59889 -15.74046 -4.87701 -1.04400 3.60801 37.43813 21.26626 8.20656 -2.66500 -0.00001 0.00000 0.00000 -0.00000 -5.00000 -2.54300 0.00000 0.00001 -0.00000 0.00000 -60.00000 -9.23201 -0.30100 2.14400 80.00000 0.00000 0.00000 -4.22500 0.00000 0.00000 90.00000 -0.00001 0.00001 -2.65402 0.00001 -0.00001 70.00000 0.00000 0.00001 -8.92001 0.00001 0.00000 80.00000 0.00000 0.00000 -4.86299 0.00000 -0.00001 90.00000 -0.00001 0.00001 -2.76500 0.00001 0.00001 70.00000 0.00000 0.00001 -8.68901 -0.12598 -2.08700 80.00000 0.00000 0.00000 -4.53801 0.00000 0.00000 90.00000 -0.00001 0.00001 -2.30500 0.00001 0.00001 70.00000 0.00000 0.00001 -8.39101 -0.81698 -3.75800 80.00000 0.00000 0.00000 -3.04402 0.00000 0.00001 90.00000 -0.00001 0.00001 -1.97499 0.00001 0.00001 70.00000 0.00000 0.00001 0.00000 0.68027 0.00002 -0.00001 -0.00005 0.00000 -0.00510 6.11993 0.00120 -2.72692 3.52748 -0.38518 
-95.86901 69.49705 -190.22093 2.69610 -0.60720 18.35582 8.69062 -0.12218 3.15685 -0.97380 1.08829 16.07765 0.01293 -24.74044 0.00168 4.84583 6.88501 -10.86847 0.00523 -31.15472 0.01020 0.64287 7.56396 -4.07937 -7.71583 1.36276 3.15823 -5.38113 -2.05291 8.64534 0.00396 -23.62713 -0.02638 0.91688 17.85539 -14.06089 -0.00420 -25.38623 0.02171 0.90988 3.99680 -2.75687 0.00011 28.16709 0.00496 -0.25237 1.93780 0.86884 0.00925 20.70850 -0.00280 -0.31418 2.43569 0.95371 1.38574 -0.35913 0.88649 -10.10728 6.43457 -32.14186 15.13490 -0.00027 0.00080 -55.80929 -2.08634 -13.74365 15.50488 -0.00115 0.00202 167.68306 -15.87360 -15.17034 18.97147 0.07608 0.01694 51.65853 -22.80492 7.88273 4.87700 -1.04399 3.60799 -41.57594 -8.45725 -7.72879 2.66501 -0.00001 -0.00001 -0.00000 0.00000 5.00000 2.54297 -0.00001 -0.00001 0.00001 0.00000 60.00000 9.23200 -0.30099 2.14399 -80.00000 0.00000 0.00000 4.22501 0.00001 0.00001 -90.00000 -0.00000 -0.00000 2.65402 -0.00001 -0.00001 -70.00000 -0.00000 0.00006 8.91999 0.00000 0.00000 -80.00000 0.00000 0.00000 4.86298 0.00001 0.00000 -90.00000 -0.00000 -0.00000 2.76501 -0.00001 -0.00001 -70.00000 -0.00000 0.00006 8.68901 -0.12599 -2.08701 -80.00000 0.00000 0.00000 4.53800 -0.00001 0.00001 -90.00000 -0.00000 -0.00000 2.30500 -0.00001 -0.00004 -70.00000 -0.00000 0.00006 8.39099 -0.81698 -3.75801 -80.00000 0.00000 0.00000 3.04401 0.00001 0.00000 -90.00000 -0.00000 -0.00000 1.97500 -0.00001 0.00000 -70.00000 -0.00000 0.00006 -1.06464 -0.25482 0.88644 8.37508 6.91197 39.23330 -12.73919 0.00494 -0.00281 53.70359 -4.31947 40.32621 -16.14275 0.00268 0.00277 -179.39870 2.90949 42.61537 -17.02086 -0.00403 -0.00296 1.46543 18.34352 -14.74086 -4.87701 -1.04400 3.60801 37.43813 21.26626 8.20656 -2.66500 -0.00001 0.00000 0.00000 -0.00000 -5.00000 -2.54300 0.00000 0.00001 -0.00000 0.00000 -60.00000 -9.23201 -0.30100 2.14400 80.00000 0.00000 0.00000 -4.22500 0.00000 0.00000 90.00000 -0.00001 0.00001 -2.65402 0.00001 -0.00001 70.00000 0.00000 0.00001 -8.92001 0.00001 0.00000 80.00000 0.00000 0.00000 -4.86299 0.00000 -0.00001 90.00000 -0.00001 0.00001 -2.76500 0.00001 0.00001 70.00000 0.00000 0.00001 -8.68901 -0.12598 -2.08700 80.00000 0.00000 0.00000 -4.53801 0.00000 0.00000 90.00000 -0.00001 0.00001 -2.30500 0.00001 0.00001 70.00000 0.00000 0.00001 -8.39101 -0.81698 -3.75800 80.00000 0.00000 0.00000 -3.04402 0.00000 0.00001 90.00000 -0.00001 0.00001 -1.97499 0.00001 0.00001 70.00000 0.00000 0.00001 0.00000 0.68027 0.00002 -0.00001 -0.00005 0.00000 -0.00510 6.11993 0.00120 -2.70128 3.50483 -0.35768 
